PathFileType	4	(X/Y/Z)	./resultDataOpenSim/trcMotMarkerGrf/sub09/qtm-05-01.trc
DataRate	CameraRate	NumFrames	NumMarkers	Units	OrigDataRate	OrigDataStartFrame	OrigNumFrames
250.000000	250.000000	8	24	m	250.000000	391	521
Frame#	Time	L.Toe.Tip			R.Toe.Tip			L.Ankle.Lat			R.Ankle.Lat			L.Ankle.Med			R.Ankle.Med			L.Heel			R.Heel			L.Knee.Lat			R.Knee.Lat			L.Knee.Med			R.Knee.Med			L.Thigh.Upper			R.Thigh.Upper			L.ASIS			R.ASIS			V.Sacral			L.Acromium			R.Acromium			C7			L.Elbow			R.Elbow			L.Wrist.Lat			R.Wrist.Lat
		X1	Y1	Z1	X2	Y2	Z2	X3	Y3	Z3	X4	Y4	Z4	X5	Y5	Z5	X6	Y6	Z6	X7	Y7	Z7	X8	Y8	Z8	X9	Y9	Z9	X10	Y10	Z10	X11	Y11	Z11	X12	Y12	Z12	X13	Y13	Z13	X14	Y14	Z14	X15	Y15	Z15	X16	Y16	Z16	X17	Y17	Z17	X18	Y18	Z18	X19	Y19	Z19	X20	Y20	Z20	X21	Y21	Z21	X22	Y22	Z22	X23	Y23	Z23	X24	Y24	Z24

391	1.56	0.82164171	0.14276484	-0.0064580964	1.0234333	0.038985862	0.11814586	0.78365504	0.2954112	-0.044965846	0.87805738	0.058608809	0.15661971	0.79880525	0.28249248	0.051581408	0.88861553	0.097800901	0.06523589	0.71017439	0.33147123	-0.0049811365	0.80594092	0.043438831	0.10895981	1.1197918	0.51374954	-0.042631203	1.0141622	0.49485298	0.21973438	1.1245245	0.50429334	0.08712071	0.99035221	0.48653884	0.09707736	0.93214078	0.88115387	-0.074835767	0.94368373	0.89754744	0.29331328	1.005221	0.9690043	-0.017882236	1.0206952	0.97959436	0.21831192	0.84883471	1.0334639	0.10251889	1.0136083	1.4207954	-0.079366554	0.98654613	1.4464802	0.24991009	0.92964399	1.4806992	0.079855598	0.87900896	1.0750754	-0.11289935	0.85627684	1.1009887	0.34626062	0.99643554	0.84283616	-0.14949097	1.0597431	0.91186424	0.36228942
392	1.564	0.83900286	0.14088828	-0.0076580705	1.0234631	0.038963143	0.11818934	0.79606226	0.29203807	-0.044972569	0.87818253	0.058983805	0.15664985	0.81265543	0.27886914	0.05143521	0.88895288	0.098134281	0.065256216	0.72155929	0.32599395	-0.0046652173	0.80603982	0.044063923	0.10902597	1.128378	0.51677028	-0.042607974	1.0156177	0.49501006	0.21988327	1.1299645	0.50684847	0.086232496	0.99205275	0.48646921	0.097529575	0.93733441	0.88231223	-0.074978488	0.94721679	0.89805406	0.29369712	1.0100371	0.97027436	-0.017982205	1.0256576	0.98038537	0.21821987	0.85338709	1.0340003	0.10227523	1.0176645	1.4217463	-0.079467816	0.99142766	1.4473963	0.24990237	0.93417665	1.4816448	0.079982676	0.88264456	1.0762561	-0.11307479	0.8613679	1.1020191	0.34739785	0.99957919	0.84390587	-0.15052328	1.0654617	0.91326864	0.36115131
393	1.568	0.85631643	0.13890115	-0.0087289589	1.0235185	0.038944798	0.11821494	0.80858857	0.28843562	-0.045014748	0.87830274	0.059353367	0.15670308	0.82705435	0.27511715	0.051119056	0.88919641	0.098463543	0.065329872	0.7330849	0.32021559	-0.0043655071	0.80618432	0.044676051	0.10917644	1.1369247	0.51970165	-0.042576172	1.0170261	0.49517672	0.22003872	1.1373193	0.50952427	0.085760517	0.99351239	0.48650863	0.09774299	0.94268093	0.88339689	-0.075085611	0.95055441	0.89851753	0.29414054	1.0148522	0.97148382	-0.018067299	1.0305991	0.98114917	0.21813515	0.85816008	1.0346811	0.10228165	1.0217324	1.4226411	-0.079566373	0.99632208	1.4482557	0.24990142	0.93872362	1.4825413	0.080108406	0.88628476	1.0773741	-0.11328006	0.86644284	1.1029068	0.34814478	1.0027669	0.84493801	-0.15154678	1.0711278	0.91460468	0.36002146
394	1.572	0.87360023	0.13681341	-0.0096867968	1.0235839	0.038922615	0.11822644	0.82124475	0.28460484	-0.045099121	0.87842466	0.059713829	0.15677543	0.84171065	0.27124571	0.050680718	0.88937456	0.098819501	0.065463992	0.74482723	0.31413419	-0.0041957729	0.8064088	0.04523227	0.10942062	1.1453681	0.52253151	-0.042571229	1.0183243	0.49536849	0.22018803	1.1456085	0.51221197	0.085482848	0.99485146	0.48665241	0.097846845	0.94818722	0.88442882	-0.075204736	0.95429562	0.89901862	0.29440962	1.0196622	0.97263138	-0.018142659	1.0355213	0.9818879	0.21805959	0.86324507	1.0355144	0.10256556	1.0258221	1.4234821	-0.079665328	1.0012234	1.4490586	0.24990352	0.94327077	1.4833762	0.080226556	0.8899139	1.0784358	-0.11352645	0.87151793	1.1036635	0.34860518	1.0059962	0.8459354	-0.15256018	1.0767382	0.91587019	0.35889993
395	1.576	0.89090702	0.13466654	-0.010544625	1.0236459	0.038900064	0.11823494	0.83404287	0.28055508	-0.045227859	0.87855507	0.060070246	0.15685941	0.85607965	0.26725868	0.050268656	0.88962841	0.0992179	0.065639242	0.75684945	0.30774907	-0.0041926543	0.80670269	0.045708011	0.10971306	1.1536186	0.52526655	-0.042636178	1.0194593	0.4955632	0.22030216	1.1540099	0.51482546	0.085216905	0.99613597	0.4869098	0.097947357	0.9537895	0.88542073	-0.075391118	0.95858633	0.89957656	0.29445069	1.0244729	0.97372059	-0.018214687	1.0404252	0.98260458	0.21799527	0.86844441	1.0363744	0.10294943	1.0299413	1.4242705	-0.079764862	1.0061248	1.4498062	0.24990602	0.94782003	1.4841513	0.080327754	0.89353959	1.0794559	-0.11380243	0.8766099	1.1043252	0.34894004	1.0092675	0.84689345	-0.15356467	1.0823119	0.91706161	0.35778673
396	1.58	0.90829469	0.13247676	-0.011308555	1.0237174	0.03889299	0.11824348	0.84699362	0.27630863	-0.045394757	0.87869609	0.060429067	0.15695165	0.86997673	0.26314895	0.049954051	0.89003967	0.099634426	0.065843116	0.76912551	0.30108321	-0.0042494884	0.80697512	0.046135594	0.10994784	1.1615988	0.52793101	-0.042792407	1.0204621	0.49572188	0.22039395	1.1622031	0.51733463	0.084890114	0.99729866	0.48728555	0.098063396	0.95939737	0.88637069	-0.075656481	0.96322113	0.90015895	0.29435347	1.0292991	0.97475776	-0.018284215	1.0453105	0.98329886	0.21794236	0.87348812	1.0371211	0.10322242	1.0340879	1.425008	-0.0798603	1.0110275	1.4505028	0.24991262	0.95239462	1.484885	0.080419353	0.89718322	1.0804474	-0.11407401	0.88172435	1.1049192	0.34924635	1.0125855	0.84780771	-0.15456095	1.0878755	0.91817789	0.35668309
397	1.584	0.92577611	0.13019327	-0.01197092	1.0238357	0.038910062	0.11823741	0.86009714	0.27188493	-0.045582738	0.87884689	0.060791121	0.15704837	0.88360498	0.2589112	0.049710691	0.89048757	0.10003943	0.066038302	0.78156348	0.29419292	-0.0042239984	0.80713862	0.046583479	0.11005307	1.1692879	0.5305106	-0.04302198	1.0213819	0.49580897	0.22050605	1.1701698	0.51973736	0.084499306	0.9983002	0.48774224	0.098172184	0.9648951	0.88726943	-0.075961454	0.96791995	0.90072948	0.29422249	1.0341507	0.97574883	-0.018347993	1.0501803	0.98396776	0.21790289	0.8782815	1.0377048	0.10332566	1.0382531	1.4256964	-0.079942922	1.0159339	1.4511533	0.24992459	0.95700544	1.4855865	0.080529778	0.90086683	1.0814159	-0.11430491	0.88685852	1.1054554	0.34955075	1.015954	0.84867914	-0.15554767	1.0934377	0.91922152	0.35559027
398	1.588	0.94332269	0.12775549	-0.012519752	1.0240141	0.038928618	0.1182013	0.87333928	0.2672816	-0.045765588	0.8789995	0.061155623	0.15714087	0.89714442	0.25456502	0.04951058	0.89073127	0.10043769	0.066140612	0.79413466	0.28714457	-0.0041086424	0.80721024	0.047094117	0.11007003	1.1767658	0.53294115	-0.043275396	1.0221968	0.49580941	0.2206363	1.1779778	0.52202952	0.084067042	0.99928925	0.48817997	0.098265786	0.97018742	0.88811383	-0.076258142	0.97234452	0.90124614	0.29415575	1.0390205	0.97669647	-0.018399775	1.0550406	0.98460952	0.21788267	0.88290443	1.0381609	0.10332642	1.0424338	1.4263341	-0.080007484	1.0208399	1.4517584	0.24993606	0.96163761	1.4862485	0.080681564	0.90460745	1.0823628	-0.11448268	0.89200715	1.1059335	0.34984877	1.0193729	0.84951139	-0.15652205	1.0989889	0.92019429	0.35450874
